<svg width="20" height="20" viewBox="0 0 20 20" fill="none" xmlns="http://www.w3.org/2000/svg">
<path d="M18.8 10.2084C18.8 9.55837 18.7417 8.93337 18.6333 8.33337H10V11.8834H14.9333C14.7167 13.025 14.0667 13.9917 13.0917 14.6417V16.95H16.0667C17.8 15.35 18.8 13 18.8 10.2084Z" fill="#4285F4"/>
<path d="M9.99998 19.1667C12.475 19.1667 14.55 18.35 16.0667 16.95L13.0917 14.6417C12.2583 15.2 11.1917 15.525 9.99998 15.525C7.61665 15.525 5.59165 13.9167 4.86665 11.75H1.81665V14.1167C3.32498 17.1083 6.41665 19.1667 9.99998 19.1667Z" fill="#34A853"/>
<path d="M4.86671 11.7417C4.68337 11.1917 4.57504 10.6084 4.57504 10.0001C4.57504 9.39172 4.68337 8.80839 4.86671 8.25839V5.89172H1.81671C1.19171 7.12506 0.833374 8.51672 0.833374 10.0001C0.833374 11.4834 1.19171 12.8751 1.81671 14.1084L4.19171 12.2584L4.86671 11.7417Z" fill="#FBBC05"/>
<path d="M9.99998 4.48337C11.35 4.48337 12.55 4.95004 13.5083 5.86671L16.1333 3.24171C14.5417 1.74171 12.475 0.833374 9.99998 0.833374C6.41665 0.833374 3.32498 2.89171 1.81665 5.89171L4.86665 8.25837C5.59165 6.09171 7.61665 4.48337 9.99998 4.48337Z" fill="#EA4335"/>
</svg>
